<?xml version="1.0" ?><svg data-name="Layer 1" id="Layer_1" viewBox="0 0 60 60" xmlns="http://www.w3.org/2000/svg" xmlns:xlink="http://www.w3.org/1999/xlink"><defs><style>.cls-1,.cls-4{fill:none;}.cls-1{clip-rule:evenodd;}.cls-2{clip-path:url(#clip-path);}.cls-3{fill:#3babb7;}.cls-4{stroke:#3babb7;stroke-linecap:round;stroke-linejoin:round;stroke-width:2px;}</style><clipPath id="clip-path"><path class="cls-1" d="M8.81,39.17A25.52,25.52,0,1,1,15.9,47.7L4.5,49.52ZM29,22V34h3a6,6,0,0,0,0-12H29Zm-4-7H21V41H33.5A12.5,12.5,0,0,0,46,28.52v-1A12.5,12.5,0,0,0,33.5,15H25Z"/></clipPath></defs><title/><g class="cls-2"><rect class="cls-3" height="61" width="62.5" x="-0.5" y="-2.98"/></g><path class="cls-4" d="M8.81,39.17A25.52,25.52,0,1,1,15.9,47.7L4.5,49.52ZM29,22V34h3a6,6,0,0,0,0-12H29Zm-4-7H21V41H33.5A12.5,12.5,0,0,0,46,28.52v-1A12.5,12.5,0,0,0,33.5,15H25Z"/></svg>